<svg width="15" height="14" viewBox="0 0 15 14" fill="none" xmlns="http://www.w3.org/2000/svg">
<path d="M10.9419 4.33962C11.3888 4.33962 11.751 3.97738 11.751 3.53053C11.751 3.08368 11.3888 2.72144 10.9419 2.72144C10.4951 2.72144 10.1328 3.08368 10.1328 3.53053C10.1328 3.97738 10.4951 4.33962 10.9419 4.33962Z" fill="#163036"/>
<path d="M7.34115 3.66724C6.65638 3.66724 5.987 3.87029 5.41763 4.25073C4.84827 4.63117 4.4045 5.17189 4.14246 5.80454C3.88041 6.43718 3.81184 7.13332 3.94543 7.80493C4.07903 8.47654 4.40877 9.09345 4.89298 9.57766C5.37718 10.0619 5.99409 10.3916 6.6657 10.5252C7.33731 10.6588 8.03345 10.5902 8.66609 10.3282C9.29874 10.0661 9.83947 9.62236 10.2199 9.053C10.6003 8.48364 10.8034 7.81425 10.8034 7.12948C10.8034 6.21124 10.4386 5.3306 9.78933 4.6813C9.14003 4.03201 8.2594 3.66724 7.34115 3.66724ZM7.34115 9.37696C6.89664 9.37696 6.46212 9.24515 6.09252 8.99819C5.72292 8.75124 5.43486 8.40023 5.26475 7.98955C5.09464 7.57888 5.05014 7.12699 5.13686 6.69102C5.22358 6.25505 5.43763 5.85459 5.75194 5.54027C6.06626 5.22596 6.46672 5.0119 6.90269 4.92518C7.33866 4.83846 7.79055 4.88297 8.20123 5.05308C8.6119 5.22319 8.96291 5.51125 9.20986 5.88085C9.45682 6.25044 9.58863 6.68497 9.58863 7.12948C9.58863 7.72555 9.35184 8.2972 8.93036 8.71869C8.50888 9.14017 7.93722 9.37696 7.34115 9.37696Z" fill="#163036"/>
<path d="M7.34205 1.6027C9.14228 1.6027 9.35579 1.60945 10.0666 1.64203C10.4941 1.64711 10.9175 1.7256 11.3184 1.87409C11.6093 1.98629 11.8734 2.15814 12.0939 2.37858C12.3143 2.59902 12.4861 2.86317 12.5983 3.15403C12.7468 3.55494 12.8253 3.97838 12.8304 4.40587C12.863 5.11664 12.8697 5.33015 12.8697 7.13094C12.8697 8.93174 12.863 9.14412 12.8304 9.85489C12.8253 10.2824 12.7468 10.7058 12.5983 11.1067C12.4861 11.3976 12.3143 11.6617 12.0939 11.8822C11.8734 12.1026 11.6093 12.2745 11.3184 12.3867C10.9175 12.5352 10.4941 12.6137 10.0666 12.6187C9.35579 12.6513 9.14228 12.6581 7.34205 12.6581C5.54182 12.6581 5.32831 12.6513 4.61754 12.6187C4.19005 12.6137 3.76661 12.5352 3.3657 12.3867C3.07484 12.2745 2.81069 12.1026 2.59025 11.8822C2.36981 11.6617 2.19796 11.3976 2.08576 11.1067C1.93727 10.7058 1.85878 10.2824 1.8537 9.85489C1.82112 9.14412 1.81437 8.93061 1.81437 7.13038C1.81437 5.33015 1.82112 5.11664 1.8537 4.40587C1.85878 3.97838 1.93727 3.55494 2.08576 3.15403C2.19796 2.86317 2.36981 2.59902 2.59025 2.37858C2.81069 2.15814 3.07484 1.98629 3.3657 1.87409C3.76661 1.7256 4.19005 1.64711 4.61754 1.64203C5.32831 1.60945 5.54182 1.6027 7.34205 1.6027ZM7.34205 0.387939C5.51092 0.387939 5.28111 0.395806 4.56192 0.428394C4.00273 0.439686 3.4495 0.545695 2.92575 0.741918C2.47779 0.915141 2.07096 1.18005 1.73134 1.51967C1.39172 1.85929 1.12681 2.26612 0.953588 2.71408C0.757303 3.23801 0.651292 3.79143 0.640064 4.35081C0.607476 5.07 0.599609 5.29869 0.599609 7.13038C0.599609 8.96208 0.607476 9.19132 0.640064 9.91052C0.651355 10.4697 0.757365 11.0229 0.953588 11.5467C1.12681 11.9946 1.39172 12.4015 1.73134 12.7411C2.07096 13.0807 2.47779 13.3456 2.92575 13.5188C3.44968 13.7151 4.0031 13.8211 4.56248 13.8324C5.28167 13.865 5.51092 13.8728 7.34205 13.8728C9.17319 13.8728 9.40299 13.865 10.1222 13.8324C10.6816 13.8211 11.235 13.7151 11.7589 13.5188C12.2069 13.3456 12.6137 13.0807 12.9533 12.7411C13.2929 12.4015 13.5579 11.9946 13.7311 11.5467C13.9272 11.0227 14.033 10.4693 14.044 9.90995C14.0766 9.19076 14.0845 8.96208 14.0845 7.13038C14.0845 5.29869 14.0766 5.06944 14.044 4.35025C14.0327 3.79106 13.9267 3.23783 13.7305 2.71408C13.5573 2.26612 13.2924 1.85929 12.9528 1.51967C12.6131 1.18005 12.2063 0.915141 11.7584 0.741918C11.2344 0.545825 10.681 0.440004 10.1216 0.428956C9.40243 0.395244 9.17375 0.387939 7.34205 0.387939Z" fill="#163036"/>
</svg>
