<svg width="15" height="15" viewBox="0 0 15 15" fill="none" xmlns="http://www.w3.org/2000/svg">
<path d="M12.5754 0.406006L2.49052 0.406006C1.4462 0.406006 0.599609 1.25259 0.599609 2.29691L0.599609 12.3818C0.599609 13.4261 1.4462 14.2727 2.49052 14.2727H12.5754C13.6197 14.2727 14.4663 13.4261 14.4663 12.3818V2.29691C14.4663 1.25259 13.6197 0.406006 12.5754 0.406006Z" fill="#163036"/>
<path d="M5.59411 4.18768C5.59411 4.42142 5.52479 4.64991 5.39493 4.84426C5.26507 5.03861 5.0805 5.19009 4.86455 5.27954C4.6486 5.36898 4.41098 5.39239 4.18173 5.34679C3.95248 5.30119 3.7419 5.18863 3.57662 5.02335C3.41134 4.85807 3.29878 4.64749 3.25318 4.41824C3.20758 4.18899 3.23098 3.95136 3.32043 3.73542C3.40988 3.51947 3.56136 3.33489 3.7557 3.20503C3.95005 3.07517 4.17855 3.00586 4.41229 3.00586C4.72573 3.00586 5.02633 3.13037 5.24796 3.35201C5.46959 3.57364 5.59411 3.87424 5.59411 4.18768ZM5.32623 6.15737L5.32623 11.3786C5.32643 11.4172 5.31903 11.4553 5.30443 11.491C5.28983 11.5266 5.26834 11.559 5.24117 11.5864C5.21401 11.6137 5.18172 11.6353 5.14615 11.6501C5.11058 11.6649 5.07244 11.6725 5.03392 11.6725H3.78829C3.74977 11.6726 3.71161 11.6651 3.676 11.6504C3.6404 11.6357 3.60805 11.6142 3.58081 11.5869C3.55357 11.5597 3.53199 11.5273 3.5173 11.4917C3.5026 11.4561 3.49509 11.418 3.4952 11.3794L3.4952 6.15737C3.4952 6.07964 3.52608 6.00509 3.58104 5.95013C3.63601 5.89516 3.71055 5.86428 3.78829 5.86428H5.03392C5.11152 5.86449 5.18587 5.89546 5.24066 5.95041C5.29546 6.00535 5.32623 6.07978 5.32623 6.15737ZM11.8373 8.87556V11.4031C11.8374 11.4385 11.8305 11.4736 11.817 11.5063C11.8035 11.539 11.7836 11.5688 11.7586 11.5938C11.7335 11.6189 11.7038 11.6387 11.671 11.6522C11.6383 11.6657 11.6032 11.6726 11.5678 11.6725H10.2284C10.193 11.6726 10.1579 11.6657 10.1252 11.6522C10.0924 11.6387 10.0627 11.6189 10.0376 11.5938C10.0126 11.5688 9.99276 11.539 9.97925 11.5063C9.96575 11.4736 9.95885 11.4385 9.95895 11.4031V8.95356C9.95895 8.58798 10.0661 7.35259 9.00326 7.35259C8.17992 7.35259 8.01211 8.19798 7.97901 8.57774V11.4031C7.97902 11.4739 7.95118 11.5418 7.90149 11.5922C7.85181 11.6426 7.78428 11.6715 7.7135 11.6725H6.4198C6.38445 11.6725 6.34945 11.6656 6.31681 11.652C6.28416 11.6384 6.25451 11.6186 6.22955 11.5936C6.20459 11.5685 6.18482 11.5388 6.17136 11.5061C6.15791 11.4734 6.15103 11.4384 6.15114 11.4031L6.15114 6.13453C6.15103 6.09918 6.15791 6.06416 6.17136 6.03147C6.18482 5.99878 6.20459 5.96907 6.22955 5.94404C6.25451 5.91901 6.28416 5.89915 6.31681 5.8856C6.34945 5.87205 6.38445 5.86507 6.4198 5.86507H7.7135C7.78496 5.86507 7.8535 5.89346 7.90403 5.94399C7.95457 5.99453 7.98295 6.06306 7.98295 6.13453V6.58992C8.28865 6.13137 8.74168 5.77762 9.70841 5.77762C11.8499 5.77762 11.8373 7.77725 11.8373 8.87556Z" fill="#FBFBFB"/>
</svg>
