<svg width="223" height="60" viewBox="0 0 223 60" fill="none" xmlns="http://www.w3.org/2000/svg">
<g clip-path="url(#clip0_4669_2680)">
<path d="M78.1192 34.306C76.4657 34.306 74.9839 34.0096 73.6891 33.4169C72.3789 32.8241 71.1777 31.9818 70.0547 30.8743L72.2073 27.9105C73.1745 29.0181 74.1571 29.7823 75.1399 30.1879C76.1226 30.5935 77.1054 30.7963 78.0724 30.7963C79.2112 30.7963 80.0535 30.578 80.6151 30.1256C81.1766 29.6732 81.4574 29.0336 81.4574 28.1913C81.4574 27.5829 81.3014 27.0994 80.9894 26.7406C80.6774 26.3818 80.2718 26.1011 79.7571 25.8983C79.258 25.6955 78.6808 25.5084 78.0256 25.3835C77.3861 25.2431 76.7153 25.1028 76.029 24.9468C75.3427 24.7908 74.6875 24.588 74.0324 24.3384C73.3928 24.0888 72.8157 23.7457 72.3009 23.3089C71.8017 22.8721 71.3805 22.3105 71.0686 21.6086C70.7566 20.9223 70.6006 20.0487 70.6006 18.988C70.6006 18.286 70.7255 17.5686 70.9906 16.8822C71.2558 16.1802 71.6614 15.5563 72.2385 15.0104C72.8 14.4643 73.5332 14.0121 74.4067 13.6688C75.2803 13.3257 76.341 13.1541 77.5889 13.1541C78.9616 13.1541 80.1939 13.3257 81.2858 13.6844C82.3776 14.0276 83.4853 14.558 84.6083 15.2755L83.0484 18.5045C82.1125 17.8182 81.2078 17.3345 80.3342 17.0694C79.4608 16.8042 78.5872 16.6638 77.6981 16.6638C76.731 16.6638 76.0134 16.8822 75.5455 17.3345C75.0775 17.7869 74.8435 18.3328 74.8435 18.988C74.8435 19.4871 74.9994 19.8927 75.3114 20.1892C75.6234 20.5011 76.029 20.7507 76.5438 20.9534C77.0429 21.1562 77.6201 21.3279 78.2752 21.4526C78.9147 21.5931 79.5855 21.749 80.2718 21.9206C80.9582 22.1078 81.6134 22.3262 82.2685 22.6069C82.9081 22.8877 83.4852 23.2621 83.9999 23.7301C84.4991 24.1981 84.9047 24.7908 85.2323 25.4771C85.5442 26.179 85.7002 27.0526 85.7002 28.1133C85.7002 29.0181 85.5442 29.8447 85.2323 30.578C84.9203 31.3267 84.4368 31.9818 83.7972 32.5278C83.1576 33.0894 82.3621 33.5105 81.4106 33.8225C80.4902 34.1501 79.3827 34.306 78.1192 34.306Z" fill="white"/>
<path d="M109.705 34.3046V13.5271H113.854V30.561H123.697V34.3046H109.705Z" fill="white"/>
<path d="M127.176 13.5898H140.919V17.1932H131.013V21.8727H139.219V25.4293H131.013V30.7017H141.293V34.305H127.176V13.5898Z" fill="white"/>
<path d="M151.246 34.306C149.592 34.306 148.111 34.0096 146.816 33.4169C145.505 32.8241 144.304 31.9818 143.182 30.8743L145.333 27.9105C146.3 29.0181 147.284 29.7823 148.266 30.1879C149.249 30.5935 150.232 30.7963 151.199 30.7963C152.338 30.7963 153.18 30.578 153.741 30.1256C154.303 29.6732 154.583 29.0336 154.583 28.1913C154.583 27.5829 154.428 27.0994 154.116 26.7406C153.804 26.3818 153.399 26.1011 152.883 25.8983C152.384 25.6955 151.807 25.5084 151.152 25.3835C150.513 25.2431 149.842 25.1028 149.155 24.9468C148.47 24.7908 147.814 24.588 147.159 24.3384C146.519 24.0888 145.942 23.7457 145.427 23.3089C144.928 22.8721 144.507 22.3105 144.195 21.6086C143.883 20.9223 143.727 20.0487 143.727 18.988C143.727 18.286 143.852 17.5686 144.117 16.8822C144.383 16.1802 144.788 15.5563 145.365 15.0104C145.926 14.4643 146.659 14.0121 147.533 13.6688C148.407 13.3257 149.468 13.1541 150.715 13.1541C152.088 13.1541 153.32 13.3257 154.412 13.6844C155.504 14.0276 156.611 14.558 157.735 15.2755L156.175 18.5045C155.239 17.8182 154.334 17.3345 153.461 17.0694C152.587 16.8042 151.714 16.6638 150.824 16.6638C149.857 16.6638 149.14 16.8822 148.672 17.3345C148.204 17.7869 147.97 18.3328 147.97 18.988C147.97 19.4871 148.126 19.8927 148.438 20.1892C148.75 20.5011 149.155 20.7507 149.671 20.9534C150.17 21.1562 150.746 21.3279 151.402 21.4526C152.041 21.5931 152.712 21.749 153.399 21.9206C154.084 22.1078 154.74 22.3262 155.395 22.6069C156.034 22.8877 156.611 23.2621 157.127 23.7301C157.626 24.1981 158.031 24.7908 158.359 25.4771C158.67 26.179 158.827 27.0526 158.827 28.1133C158.827 29.0181 158.67 29.8447 158.359 30.578C158.046 31.3267 157.563 31.9818 156.924 32.5278C156.285 33.0894 155.489 33.5105 154.537 33.8225C153.601 34.1501 152.494 34.306 151.246 34.306Z" fill="white"/>
<path d="M76.8551 38.0645H81.7375L88.9597 58.6549H84.5609L83.1414 53.8972H75.342L73.9225 58.6549H69.6797L76.8551 38.0645ZM76.5431 50.4187H81.7532L79.2261 42.1826H79.0701L76.5431 50.4187Z" fill="white"/>
<path d="M116.57 38.0645H121.453L128.675 58.6549H124.276L122.856 53.8972H115.056L113.638 58.6549H109.395L116.57 38.0645ZM116.258 50.4187H121.468L118.941 42.1826H118.784L116.258 50.4187Z" fill="white"/>
<path d="M94.8571 13.6975H99.7395L106.962 34.2879H102.563L101.143 29.5303H93.3441L91.9245 34.2879H87.6816L94.8571 13.6975ZM94.5452 26.0674H99.7551L97.2281 17.8312H97.0722L94.5452 26.0674Z" fill="white"/>
<path d="M96.1511 58.6548H91.9238V37.7993H96.1511V46.7061L103.498 37.7837H108.209L100.051 47.4237L108.895 58.6393H103.779L96.1511 49.5139V58.6548Z" fill="white"/>
<path d="M132.09 58.6548V37.7993H139.687C143.087 37.7993 145.584 38.6728 147.159 40.4042C148.734 42.1357 149.514 44.7564 149.514 48.2504C149.514 51.7445 148.734 54.3496 147.159 56.081C145.584 57.7969 143.087 58.6548 139.687 58.6548H132.09ZM136.349 55.0203H139.718C141.668 55.0203 143.072 54.5056 143.914 53.4604C144.757 52.4153 145.177 50.6839 145.177 48.2661C145.177 47.0493 145.068 46.0198 144.881 45.1463C144.678 44.2884 144.35 43.5708 143.914 43.0092C143.477 42.4477 142.9 42.0577 142.214 41.8081C141.528 41.5585 140.685 41.4338 139.718 41.4338H136.349V55.0203Z" fill="white"/>
<path d="M154.396 37.7993H167.983V41.4338H158.186V46.1446H166.298V49.7167H158.186V55.0203H168.342V58.6548H154.381V37.7993H154.396Z" fill="white"/>
<path d="M209.055 37.7993H222.641V41.4338H212.844V46.1446H220.956V49.7167H212.844V55.0203H223V58.6548H209.039V37.7993H209.055Z" fill="white"/>
<path d="M172.24 58.6548V37.7993H177.403L182.942 53.71L188.572 37.7993H193.455V58.6548H189.898V44.6471C189.898 44.4911 189.681 44.4444 189.618 44.6004L184.548 58.6548H181.428L176.125 44.0699C176.062 43.9139 175.844 43.9607 175.844 44.1167V58.6548H172.24Z" fill="white"/>
<path d="M202.972 37.7993H199.182V58.6548H202.972V37.7993Z" fill="white"/>
<path d="M59.1967 44.8496L51.8809 51.0578L52.3021 52.2746L59.6179 46.0663L59.1967 44.8496Z" fill="white"/>
<path d="M60.9282 49.8573L60.3822 48.2974L53.0664 54.5057L53.5967 56.0812L60.9282 49.8573Z" fill="white"/>
<path d="M28.4685 13.5891L33.3665 7.1625C33.0858 6.78812 32.7738 6.42936 32.415 6.08618L25.9883 11.6238C26.8774 12.1854 27.7197 12.8404 28.4685 13.5891Z" fill="white"/>
<path d="M39.9629 48.0784H41.8503L56.1076 35.9894L55.6865 34.7415L39.9629 48.0784Z" fill="white"/>
<path d="M61.7083 52.0881L54.3613 58.312L54.5016 58.7332H56.2956L62.2543 53.6793L61.7083 52.0881Z" fill="white"/>
<path d="M58.028 41.5122L50.291 48.0793H50.8838L51.1334 48.828L58.418 42.6354L58.028 41.5122Z" fill="white"/>
<path d="M1.45091 16.8659L19.4519 1.32949C18.9528 1.29829 18.438 1.28269 17.9388 1.26709L1.29492 15.618C1.32612 16.0391 1.37292 16.4447 1.45091 16.8659Z" fill="white"/>
<path d="M57.263 39.281L56.8887 38.2046L45.252 48.0786H46.8899L57.263 39.281Z" fill="white"/>
<path d="M10.6692 13.1999C11.2307 11.3904 12.7594 10.2205 14.7717 9.65893L23.7097 1.93755C23.273 1.84395 22.8362 1.75036 22.3838 1.67236L2.08984 19.2054C2.21464 19.5485 2.37063 19.8917 2.52661 20.2349L10.6692 13.1999Z" fill="white"/>
<path d="M29.6211 4.10669L22.6797 10.0966C23.0853 10.237 23.4908 10.3774 23.8808 10.549L30.6506 4.71505C30.3231 4.51226 29.9798 4.30948 29.6211 4.10669Z" fill="white"/>
<path d="M36.5635 48.0799L45.2052 40.7485L35.8772 40.764L41.8515 22.5759H42.4131L47.8102 38.5335L54.8921 32.5279L48.0909 12.9514H36.5791L32.2115 25.9453C28.7954 21.64 21.8227 20.9536 16.6907 19.6433L8.9069 26.3664C9.96762 26.8344 11.1375 27.1775 12.401 27.3803C22.9458 30.0165 26.3619 30.6093 25.7067 36.0377C25.504 37.7535 24.4745 39.2822 22.9146 40.0153C18.235 42.246 9.04729 40.0309 5.39717 33.8382L0 40.1245C4.11807 45.3033 9.54644 50.2169 24.3653 47.9395L20.8088 58.7339H30.1525L33.5997 48.0799H36.5635Z" fill="white"/>
<path d="M59.6816 58.7327H64.0181L63.0354 55.8938L59.6816 58.7327Z" fill="white"/>
<path d="M14.3045 1.50195C10.982 1.96991 7.86221 3.15542 5.49119 5.27685C3.19818 7.32029 1.87228 9.92528 1.41992 12.6083L14.3045 1.50195Z" fill="white"/>
<path d="M13.0876 18.3806L5.92773 24.5577C6.22411 24.7918 6.53609 25.0257 6.86366 25.244L14.2419 18.8798C13.8207 18.7238 13.4464 18.5522 13.0876 18.3806Z" fill="white"/>
<path d="M27.4537 3.09228C27.0638 2.93629 26.6738 2.79591 26.2526 2.65552L18.5469 9.30059C19.046 9.33178 19.5452 9.37858 20.06 9.45658L27.4537 3.09228Z" fill="white"/>
<path d="M11.3094 17.0233C11.0598 16.7269 10.8726 16.4149 10.7323 16.0562L3.66602 22.1553C3.8844 22.4517 4.11839 22.748 4.35237 23.0289L11.3094 17.0233Z" fill="white"/>
</g>
<defs>
<clipPath id="clip0_4669_2680">
<rect width="223" height="59.6139" fill="white" transform="translate(0 0.193115)"/>
</clipPath>
</defs>
</svg>
