<svg width="81" height="18" viewBox="0 0 81 18" fill="none" xmlns="http://www.w3.org/2000/svg">
<path d="M5.888 0.891999C8.048 0.891999 9.72 1.34 10.904 2.236C12.104 3.132 12.704 4.468 12.704 6.244C12.704 8.1 12.112 9.5 10.928 10.444C9.744 11.372 8.16 11.836 6.176 11.836H4.28V17.5H0.752V0.891999H5.888ZM5.888 9.244C6.912 9.244 7.696 9.012 8.24 8.548C8.784 8.084 9.056 7.316 9.056 6.244C9.056 4.372 7.984 3.436 5.84 3.436H4.28V9.244H5.888ZM23.4078 13.972C23.4078 14.468 23.4798 14.836 23.6238 15.076C23.7678 15.3 24.0078 15.468 24.3438 15.58L23.6238 17.836C22.8718 17.772 22.2558 17.596 21.7758 17.308C21.3118 17.02 20.9518 16.572 20.6958 15.964C19.8638 17.244 18.5918 17.884 16.8798 17.884C15.6158 17.884 14.6078 17.524 13.8558 16.804C13.1198 16.068 12.7518 15.116 12.7518 13.948C12.7518 12.556 13.2558 11.492 14.2638 10.756C15.2718 10.02 16.7198 9.652 18.6078 9.652H20.0718V9.028C20.0718 8.244 19.8958 7.7 19.5438 7.396C19.1918 7.092 18.6078 6.94 17.7918 6.94C16.8958 6.94 15.7758 7.164 14.4318 7.612L13.6638 5.332C15.2478 4.708 16.8158 4.396 18.3678 4.396C20.0958 4.396 21.3678 4.772 22.1838 5.524C22.9998 6.26 23.4078 7.364 23.4078 8.836V13.972ZM17.8158 15.436C18.7758 15.436 19.5278 14.964 20.0718 14.02V11.596H18.9438C17.1038 11.596 16.1838 12.284 16.1838 13.66C16.1838 14.22 16.3198 14.66 16.5918 14.98C16.8798 15.284 17.2878 15.436 17.8158 15.436ZM33.3888 4.42C33.7728 4.42 34.1968 4.484 34.6608 4.612L34.0848 7.9C33.6368 7.788 33.2608 7.732 32.9568 7.732C32.2048 7.732 31.6208 7.996 31.2048 8.524C30.7888 9.052 30.4608 9.852 30.2208 10.924V17.5H26.8128V4.78H29.7648L30.0768 7.252C30.3808 6.356 30.8208 5.66 31.3968 5.164C31.9888 4.668 32.6528 4.42 33.3888 4.42ZM43.9599 16.9C43.4959 17.22 42.9679 17.46 42.3759 17.62C41.7999 17.796 41.2239 17.884 40.6479 17.884C39.3359 17.868 38.3439 17.492 37.6719 16.756C36.9999 16.02 36.6639 14.94 36.6639 13.516V7.18H34.7679V4.78H36.6639V1.996L40.0719 1.588V4.78H42.9999L42.6639 7.18H40.0719V13.444C40.0719 14.052 40.1759 14.492 40.3839 14.764C40.5919 15.036 40.9119 15.172 41.3439 15.172C41.7759 15.172 42.2559 15.028 42.7839 14.74L43.9599 16.9ZM52.5731 4.396C53.6931 4.396 54.5651 4.74 55.1891 5.428C55.8131 6.1 56.1251 7.036 56.1251 8.236V17.5H52.7171V8.812C52.7171 8.124 52.5971 7.644 52.3571 7.372C52.1331 7.084 51.7891 6.94 51.3251 6.94C50.8451 6.94 50.4051 7.092 50.0051 7.396C49.6211 7.684 49.2451 8.124 48.8771 8.716V17.5H45.4691V4.78H48.4211L48.6851 6.388C49.2131 5.732 49.7891 5.236 50.4131 4.9C51.0531 4.564 51.7731 4.396 52.5731 4.396ZM70.1195 10.852C70.1195 11.012 70.0955 11.452 70.0475 12.172H62.1035C62.2155 13.324 62.5275 14.14 63.0395 14.62C63.5515 15.1 64.2475 15.34 65.1275 15.34C65.6715 15.34 66.1835 15.252 66.6635 15.076C67.1435 14.9 67.6635 14.62 68.2235 14.236L69.6395 16.156C68.2155 17.308 66.6075 17.884 64.8155 17.884C62.8155 17.884 61.2795 17.284 60.2075 16.084C59.1355 14.884 58.5995 13.26 58.5995 11.212C58.5995 9.916 58.8235 8.756 59.2715 7.732C59.7355 6.692 60.3995 5.876 61.2635 5.284C62.1435 4.692 63.1835 4.396 64.3835 4.396C66.1915 4.396 67.5995 4.964 68.6075 6.1C69.6155 7.236 70.1195 8.82 70.1195 10.852ZM66.7355 9.892C66.7355 7.78 65.9755 6.724 64.4555 6.724C63.7515 6.724 63.1995 6.988 62.7995 7.516C62.4155 8.028 62.1835 8.868 62.1035 10.036H66.7355V9.892ZM79.1623 4.42C79.5463 4.42 79.9703 4.484 80.4343 4.612L79.8583 7.9C79.4103 7.788 79.0343 7.732 78.7303 7.732C77.9783 7.732 77.3943 7.996 76.9783 8.524C76.5623 9.052 76.2343 9.852 75.9943 10.924V17.5H72.5863V4.78H75.5383L75.8503 7.252C76.1543 6.356 76.5943 5.66 77.1703 5.164C77.7623 4.668 78.4263 4.42 79.1623 4.42Z" fill="#181818"/>
</svg>
