<svg width="80" height="80" viewBox="0 0 80 80" fill="none" xmlns="http://www.w3.org/2000/svg">
<path fill-rule="evenodd" clip-rule="evenodd" d="M39.1668 74.9999C19.3766 74.9999 3.3335 58.9569 3.3335 39.1666C3.3335 19.3764 19.3766 3.33325 39.1668 3.33325C58.9572 3.33325 75.0002 19.3764 75.0002 39.1666C75.0002 58.9569 58.9572 74.9999 39.1668 74.9999ZM53.9672 32.1609C55.6205 31.3511 56.3042 29.3544 55.4945 27.7011C54.6845 26.0478 52.6878 25.364 51.0345 26.1738C44.5152 29.367 39.4675 34.8463 36.1242 39.3126C34.9655 40.8603 33.9875 42.3189 33.201 43.5699C32.2706 42.7639 31.3529 42.0962 30.544 41.5629C29.6189 40.9529 28.798 40.4936 28.1989 40.1826C27.8985 40.0266 27.6514 39.9062 27.4719 39.8219C27.3821 39.7799 27.309 39.7466 27.2543 39.7219L27.1864 39.6919L27.1631 39.6819L27.1542 39.6779L27.1472 39.6749C27.1464 39.6746 27.1472 39.6749 25.8342 42.7389L27.1472 39.6749C25.4551 38.9499 23.4955 39.7336 22.7704 41.4256C22.0466 43.1146 22.8271 45.0703 24.5125 45.7989L24.5159 45.8003L24.5278 45.8056C24.5478 45.8146 24.5851 45.8316 24.6378 45.8563C24.7435 45.9059 24.9105 45.9869 25.1257 46.0986C25.5579 46.3233 26.1744 46.6672 26.8743 47.1289C28.3036 48.0713 29.932 49.4056 31.1034 51.0789C31.7798 52.0452 32.9165 52.5819 34.0925 52.4906C35.2678 52.3993 36.3082 51.6926 36.8275 50.6339L36.8362 50.6169L36.8845 50.5209C36.9302 50.4316 37.0018 50.2929 37.0992 50.1106C37.2942 49.7449 37.5908 49.2046 37.9848 48.5333C38.7745 47.1879 39.9462 45.3313 41.4608 43.3079C44.5342 39.2029 48.8198 34.6819 53.9672 32.1609Z" fill="#1FB356"/>
</svg>
