<svg width="80" height="80" viewBox="0 0 80 80" fill="none" xmlns="http://www.w3.org/2000/svg">
<path fill-rule="evenodd" clip-rule="evenodd" d="M0 40C0 62.0915 17.9086 80 40 80C62.0915 80 80 62.0915 80 40C80 17.9086 62.0915 0 40 0C17.9086 0 0 17.9086 0 40ZM26.2063 26.206C27.6595 24.7529 30.0154 24.7531 31.4684 26.2063L40 34.7386L48.5317 26.2063C49.9847 24.7531 52.3405 24.7529 53.7939 26.206C55.2469 27.659 55.2469 30.015 53.7939 31.4682L45.2618 40.0011L53.7916 48.5317C55.2447 49.9851 55.2447 52.3408 53.7913 53.7939C52.3382 55.2469 49.9821 55.2469 48.5291 53.7939L40 45.2636L31.4708 53.7939C30.0178 55.2469 27.6618 55.2469 26.2086 53.7939C24.7555 52.3408 24.7553 49.9851 26.2084 48.5317L34.7382 40.0011L26.206 31.4682C24.7529 30.015 24.7531 27.659 26.2063 26.206Z" fill="#E62E2E"/>
</svg>
