<svg xmlns="http://www.w3.org/2000/svg" version="1.1" xmlns:xlink="http://www.w3.org/1999/xlink" xmlns:svgjs="http://svgjs.com/svgjs" width="18" height="20"><svg width="18" height="20" viewBox="0 0 18 20" fill="none" xmlns="http://www.w3.org/2000/svg">
<g clip-path="url(#clip0_0_3)">
<path d="M9.0001 1.25C8.77228 1.25 8.54728 1.30469 8.33353 1.41016L0.444472 5.36719C0.177285 5.50391 9.72142e-05 5.85547 9.72142e-05 6.25C9.72142e-05 6.64453 0.177285 6.99609 0.444472 7.13281L2.07291 7.94922C1.61166 8.95703 1.3501 10.1484 1.3501 11.4023V12.5C1.3501 13.6094 1.04635 14.7539 0.72291 15.6562C0.540097 16.1641 0.331972 16.6641 0.0900972 17.125C9.72152e-05 17.293 -0.0252153 17.5117 0.0254097 17.7109C0.0760347 17.9102 0.19416 18.0586 0.34041 18.1094L2.14041 18.7344C2.25853 18.7773 2.3851 18.7461 2.48916 18.6563C2.59322 18.5664 2.66635 18.418 2.68885 18.25C2.93072 16.5781 2.80978 15.0781 2.62978 14.0039C2.53978 13.4492 2.41885 12.8828 2.2501 12.3633V11.4023C2.2501 10.2227 2.53697 9.10937 3.03478 8.21875C3.3976 7.61328 3.86729 7.125 4.41854 6.82422L8.83416 4.41406C9.06478 4.28906 9.32635 4.44531 9.41635 4.76562C9.50635 5.08594 9.39385 5.44922 9.16322 5.57422L4.7476 7.98437C4.39885 8.17578 4.09229 8.46875 3.84197 8.82812L8.33072 11.0781C8.54447 11.1836 8.76947 11.2383 8.99728 11.2383C9.2251 11.2383 9.4501 11.1836 9.66385 11.0781L17.5557 7.13281C17.8229 7 18.0001 6.64453 18.0001 6.25C18.0001 5.85547 17.8229 5.50391 17.5557 5.36719L9.66666 1.41016C9.45291 1.30469 9.22791 1.25 9.0001 1.25ZM3.6001 15.9375C3.6001 17.3164 6.01885 18.75 9.0001 18.75C11.9813 18.75 14.4001 17.3164 14.4001 15.9375L13.9698 10.2578L9.97041 12.2656C9.65822 12.4219 9.32916 12.5 9.0001 12.5C8.67103 12.5 8.33916 12.4219 8.02978 12.2656L4.03041 10.2578L3.6001 15.9375Z" fill="black"></path>
</g>
<defs>
<clipPath id="SvgjsClipPath1000">
<rect width="18" height="20" fill="white"></rect>
</clipPath>
</defs>
</svg><style>@media (prefers-color-scheme: light) { :root { filter: none; } }
</style></svg>