<svg width="152" height="152" viewBox="0 0 152 152" fill="none" xmlns="http://www.w3.org/2000/svg">
<g filter="url(#filter0_d_111_1572)">
<rect x="16" y="16" width="120" height="120" rx="16" fill="#009EE2"/>
</g>
<g clip-path="url(#clip0_111_1572)">
<path d="M64.0635 76.1866H69.7175V77.2451H69.7485C70.3065 76.4666 71.0965 76.0461 71.9325 76.0461H72.0255V78.6786C71.7935 78.6631 71.5765 78.6476 71.4525 78.6476C70.3065 78.6476 69.7175 79.3801 69.7175 80.3776V83.8041H67.301V78.1491H64.0635V80.9541C64.0635 81.4521 64.172 81.8106 64.637 81.8106C64.807 81.8106 65.117 81.7641 65.3805 81.6391L65.9845 83.4311C65.458 83.7271 64.9155 83.9446 63.8625 83.9446C62.561 83.9446 61.6315 83.1346 61.6315 81.4056C61.6315 78.9806 61.6305 76.3621 61.6315 73.7406L64.0635 73.4916V76.1866ZM57.8 76.2041H60.217V83.8216H57.8V76.2041ZM57.793 72.2991H60.2145V74.6701H57.793V72.2991ZM29.689 72.4681C30.5525 72.4698 31.4042 72.6685 32.1793 73.0491C32.9545 73.4296 33.6326 73.982 34.162 74.6641L32.2345 76.3381C31.9446 75.9334 31.5627 75.6034 31.1202 75.3754C30.6777 75.1474 30.1873 75.0278 29.6895 75.0266C29.276 75.0267 28.8666 75.1086 28.4848 75.2675C28.1031 75.4265 27.7565 75.6593 27.465 75.9526C26.8746 76.5474 26.5435 77.3516 26.544 78.1896C26.544 79.9356 27.952 81.3516 29.689 81.3516C30.1821 81.3507 30.6682 81.2336 31.1076 81.0097C31.547 80.7859 31.9274 80.4615 32.218 80.0631L34.151 81.7381C33.6202 82.4143 32.9428 82.9612 32.1699 83.3376C31.397 83.7139 30.5487 83.9098 29.689 83.9106C26.547 83.9106 24 81.3491 24 78.1896C23.9991 76.6739 24.5982 75.2194 25.6665 74.1441C26.1934 73.6134 26.8201 73.1921 27.5104 72.9045C28.2007 72.6168 28.9411 72.4685 29.689 72.4681ZM35.0005 76.2056H37.4155V77.2646H37.4455C38.0025 76.4861 38.7925 76.0666 39.6285 76.0666H39.7215V78.6971C39.488 78.6821 39.2715 78.6656 39.148 78.6656C38.0025 78.6656 37.4155 79.3971 37.4155 80.3936V83.8196H35L35.0005 76.2056ZM47.6705 79.9271C47.6705 80.1451 47.6385 80.5026 47.6235 80.6586H42.462C42.6175 81.5311 43.346 81.9821 44.276 81.9821C44.896 81.9671 45.531 81.7321 46.0415 81.1571L47.438 82.5896C46.8015 83.3836 45.748 83.9606 44.0275 83.9606C41.734 83.9606 40.0585 82.3716 40.0585 80.0041C40.0585 77.7006 41.672 76.0666 43.9655 76.0666C46.1055 76.0666 47.6705 77.6686 47.6705 79.9271ZM43.9315 77.9971C43.1885 77.9971 42.631 78.4506 42.4755 79.2171H45.3105C45.1565 78.4671 44.6605 77.9971 43.9315 77.9971ZM51.8775 83.8971C49.786 83.8971 48.2985 82.3071 48.2985 79.9556C48.2985 77.6186 49.801 75.9986 51.7535 75.9986C52.6055 75.9986 53.38 76.3241 53.9225 76.9486H53.9375V72.2901H56.37V83.7561H54.061V82.9451H54.031C53.535 83.5691 52.8225 83.8966 51.8775 83.8966M52.3755 81.7461C53.322 81.7461 54.0355 81.0446 54.0355 79.9551C54.0355 78.9101 53.352 78.1466 52.3755 78.1466C51.4595 78.1466 50.7455 78.8636 50.7455 79.9551C50.7455 81.0291 51.4295 81.7461 52.3755 81.7461ZM83.3225 72.2041C84.3295 72.2041 85.1045 72.6096 85.3675 72.7966L84.9185 74.5566C84.593 74.3851 84.1905 74.2761 83.9735 74.2761C83.5395 74.2761 83.261 74.4946 83.261 75.1021V76.2081H84.701V78.1706H83.261V83.8256H80.8285V78.1706C80.8277 78.1716 80.8267 78.1723 80.8255 78.1726V75.0076L80.8285 75.0086C80.8285 73.1236 81.805 72.2041 83.3225 72.2041ZM89.2445 83.9406C86.794 83.9406 85.1355 82.3041 85.1355 79.9991C85.1355 77.6771 86.794 76.0421 89.2445 76.0421C91.6315 76.0421 93.3365 77.6451 93.3365 79.9991C93.3365 82.3356 91.6315 83.9406 89.2445 83.9406ZM89.242 81.7946C90.1555 81.7946 90.8835 81.0451 90.8835 80.0011C90.8835 78.9406 90.187 78.2061 89.242 78.2061C88.2655 78.2061 87.585 78.9561 87.585 80.0011C87.585 81.0151 88.2805 81.7946 89.2425 81.7946M79.909 79.9266C79.909 80.1446 79.877 80.5021 79.862 80.6581H74.7035C74.8585 81.5306 75.5865 81.9816 76.517 81.9816C77.136 81.9666 77.77 81.7316 78.281 81.1566L79.677 82.5891C79.041 83.3831 77.987 83.9601 76.268 83.9601C73.976 83.9601 72.3015 82.3711 72.3015 80.0036C72.3015 77.7001 73.914 76.0661 76.206 76.0661C78.3445 76.0661 79.909 77.6681 79.909 79.9266ZM76.1745 77.9966C75.4315 77.9966 74.8745 78.4501 74.7185 79.2166H77.5535C77.4 78.4666 76.9035 77.9966 76.1745 77.9966ZM94.2865 76.2036H96.704V77.2626H96.734C97.2915 76.4836 98.083 76.0641 98.919 76.0641H99.0125V78.6961C98.779 78.6811 98.5625 78.6641 98.4385 78.6641C97.2915 78.6641 96.7035 79.3961 96.7035 80.3936V83.8216H94.2865V76.2036ZM99.8545 76.1791H102.272L102.287 77.0826C102.876 76.3976 103.635 76.0401 104.426 76.0401C105.386 76.0401 106.176 76.3826 106.656 77.1766C107.261 76.4126 108.159 76.0401 109.212 76.0401C110.808 76.0401 111.892 76.9581 111.892 79.3576V83.7976H109.475V79.9176C109.475 78.9206 109.212 78.2041 108.375 78.2041C107.679 78.2041 107.105 78.7816 107.105 79.9801V83.7976H104.688V79.9176C104.688 78.9206 104.394 78.2041 103.59 78.2041C102.83 78.2041 102.272 78.7816 102.272 79.9801V83.7976H99.8545V76.1791Z" fill="white"/>
<path d="M119.239 69.469C120.03 69.1252 120.89 68.9668 121.751 69.0058C122.613 69.0448 123.455 69.2802 124.212 69.694L123.106 72C122.679 71.7447 122.197 71.5949 121.701 71.5629C121.205 71.5309 120.708 71.6176 120.252 71.816C119.872 71.9819 119.529 72.2209 119.242 72.5194C118.954 72.818 118.729 73.1702 118.578 73.556C118.272 74.3364 118.286 75.2062 118.618 75.976C118.782 76.3565 119.019 76.7009 119.316 76.9897C119.612 77.2785 119.963 77.5059 120.348 77.659C120.732 77.8117 121.142 77.8868 121.555 77.8799C121.968 77.873 122.376 77.7844 122.755 77.619C123.207 77.4204 123.606 77.1183 123.921 76.7372C124.235 76.3561 124.456 75.9064 124.565 75.4245L127.001 76.188C126.782 77.0208 126.377 77.7932 125.817 78.4474C125.257 79.1017 124.556 79.6208 123.768 79.966C120.885 81.223 117.535 79.893 116.284 76.994C115.683 75.6014 115.657 74.0278 116.212 72.616C116.485 71.9183 116.893 71.2812 117.412 70.7411C117.932 70.2011 118.552 69.7686 119.239 69.4685M116.455 82.0335H126.36V84H116.455V82.0335Z" fill="white"/>
<path d="M64.0635 76.1866H69.7175V77.2451H69.7485C70.3065 76.4666 71.0965 76.0461 71.9325 76.0461H72.0255V78.6786C71.7935 78.6631 71.5765 78.6476 71.4525 78.6476C70.3065 78.6476 69.7175 79.3801 69.7175 80.3776V83.8041H67.301V78.1491H64.0635V80.9541C64.0635 81.4521 64.172 81.8106 64.637 81.8106C64.807 81.8106 65.117 81.7641 65.3805 81.6391L65.9845 83.4311C65.458 83.7271 64.9155 83.9446 63.8625 83.9446C62.561 83.9446 61.6315 83.1346 61.6315 81.4056C61.6315 78.9806 61.6305 76.3621 61.6315 73.7406L64.0635 73.4916V76.1866ZM57.8 76.2041H60.217V83.8216H57.8V76.2041ZM57.793 72.2991H60.2145V74.6701H57.793V72.2991ZM29.689 72.4681C30.5525 72.4698 31.4042 72.6685 32.1793 73.0491C32.9545 73.4296 33.6326 73.982 34.162 74.6641L32.2345 76.3381C31.9446 75.9334 31.5627 75.6034 31.1202 75.3754C30.6777 75.1474 30.1873 75.0278 29.6895 75.0266C29.276 75.0267 28.8666 75.1086 28.4848 75.2675C28.1031 75.4265 27.7565 75.6593 27.465 75.9526C26.8746 76.5474 26.5435 77.3516 26.544 78.1896C26.544 79.9356 27.952 81.3516 29.689 81.3516C30.1821 81.3507 30.6682 81.2336 31.1076 81.0097C31.547 80.7859 31.9274 80.4615 32.218 80.0631L34.151 81.7381C33.6202 82.4143 32.9428 82.9612 32.1699 83.3376C31.397 83.7139 30.5487 83.9098 29.689 83.9106C26.547 83.9106 24 81.3491 24 78.1896C23.9991 76.6739 24.5982 75.2194 25.6665 74.1441C26.1934 73.6134 26.8201 73.1921 27.5104 72.9045C28.2007 72.6168 28.9411 72.4685 29.689 72.4681ZM35.0005 76.2056H37.4155V77.2646H37.4455C38.0025 76.4861 38.7925 76.0666 39.6285 76.0666H39.7215V78.6971C39.488 78.6821 39.2715 78.6656 39.148 78.6656C38.0025 78.6656 37.4155 79.3971 37.4155 80.3936V83.8196H35L35.0005 76.2056ZM47.6705 79.9271C47.6705 80.1451 47.6385 80.5026 47.6235 80.6586H42.462C42.6175 81.5311 43.346 81.9821 44.276 81.9821C44.896 81.9671 45.531 81.7321 46.0415 81.1571L47.438 82.5896C46.8015 83.3836 45.748 83.9606 44.0275 83.9606C41.734 83.9606 40.0585 82.3716 40.0585 80.0041C40.0585 77.7006 41.672 76.0666 43.9655 76.0666C46.1055 76.0666 47.6705 77.6686 47.6705 79.9271ZM43.9315 77.9971C43.1885 77.9971 42.631 78.4506 42.4755 79.2171H45.3105C45.1565 78.4671 44.6605 77.9971 43.9315 77.9971ZM51.8775 83.8971C49.786 83.8971 48.2985 82.3071 48.2985 79.9556C48.2985 77.6186 49.801 75.9986 51.7535 75.9986C52.6055 75.9986 53.38 76.3241 53.9225 76.9486H53.9375V72.2901H56.37V83.7561H54.061V82.9451H54.031C53.535 83.5691 52.8225 83.8966 51.8775 83.8966M52.3755 81.7461C53.322 81.7461 54.0355 81.0446 54.0355 79.9551C54.0355 78.9101 53.352 78.1466 52.3755 78.1466C51.4595 78.1466 50.7455 78.8636 50.7455 79.9551C50.7455 81.0291 51.4295 81.7461 52.3755 81.7461ZM83.3225 72.2041C84.3295 72.2041 85.1045 72.6096 85.3675 72.7966L84.9185 74.5566C84.593 74.3851 84.1905 74.2761 83.9735 74.2761C83.5395 74.2761 83.261 74.4946 83.261 75.1021V76.2081H84.701V78.1706H83.261V83.8256H80.8285V78.1706C80.8277 78.1716 80.8267 78.1723 80.8255 78.1726V75.0076L80.8285 75.0086C80.8285 73.1236 81.805 72.2041 83.3225 72.2041ZM89.2445 83.9406C86.794 83.9406 85.1355 82.3041 85.1355 79.9991C85.1355 77.6771 86.794 76.0421 89.2445 76.0421C91.6315 76.0421 93.3365 77.6451 93.3365 79.9991C93.3365 82.3356 91.6315 83.9406 89.2445 83.9406ZM89.242 81.7946C90.1555 81.7946 90.8835 81.0451 90.8835 80.0011C90.8835 78.9406 90.187 78.2061 89.242 78.2061C88.2655 78.2061 87.585 78.9561 87.585 80.0011C87.585 81.0151 88.2805 81.7946 89.2425 81.7946M79.909 79.9266C79.909 80.1446 79.877 80.5021 79.862 80.6581H74.7035C74.8585 81.5306 75.5865 81.9816 76.517 81.9816C77.136 81.9666 77.77 81.7316 78.281 81.1566L79.677 82.5891C79.041 83.3831 77.987 83.9601 76.268 83.9601C73.976 83.9601 72.3015 82.3711 72.3015 80.0036C72.3015 77.7001 73.914 76.0661 76.206 76.0661C78.3445 76.0661 79.909 77.6681 79.909 79.9266ZM76.1745 77.9966C75.4315 77.9966 74.8745 78.4501 74.7185 79.2166H77.5535C77.4 78.4666 76.9035 77.9966 76.1745 77.9966ZM94.2865 76.2036H96.704V77.2626H96.734C97.2915 76.4836 98.083 76.0641 98.919 76.0641H99.0125V78.6961C98.779 78.6811 98.5625 78.6641 98.4385 78.6641C97.2915 78.6641 96.7035 79.3961 96.7035 80.3936V83.8216H94.2865V76.2036ZM99.8545 76.1791H102.272L102.287 77.0826C102.876 76.3976 103.635 76.0401 104.426 76.0401C105.386 76.0401 106.176 76.3826 106.656 77.1766C107.261 76.4126 108.159 76.0401 109.212 76.0401C110.808 76.0401 111.892 76.9581 111.892 79.3576V83.7976H109.475V79.9176C109.475 78.9206 109.212 78.2041 108.375 78.2041C107.679 78.2041 107.105 78.7816 107.105 79.9801V83.7976H104.688V79.9176C104.688 78.9206 104.394 78.2041 103.59 78.2041C102.83 78.2041 102.272 78.7816 102.272 79.9801V83.7976H99.8545V76.1791Z" fill="white"/>
<path d="M119.239 69.469C120.03 69.1252 120.89 68.9668 121.751 69.0058C122.613 69.0448 123.455 69.2802 124.212 69.694L123.106 72C122.679 71.7447 122.197 71.5949 121.701 71.5629C121.205 71.5309 120.708 71.6176 120.252 71.816C119.872 71.9819 119.529 72.2209 119.242 72.5194C118.954 72.818 118.729 73.1702 118.578 73.556C118.272 74.3364 118.286 75.2062 118.618 75.976C118.782 76.3565 119.019 76.7009 119.316 76.9897C119.612 77.2785 119.963 77.5059 120.348 77.659C120.732 77.8117 121.142 77.8868 121.555 77.8799C121.968 77.873 122.376 77.7844 122.755 77.619C123.207 77.4204 123.606 77.1183 123.921 76.7372C124.235 76.3561 124.456 75.9064 124.565 75.4245L127.001 76.188C126.782 77.0208 126.377 77.7932 125.817 78.4474C125.257 79.1017 124.556 79.6208 123.768 79.966C120.885 81.223 117.535 79.893 116.284 76.994C115.683 75.6014 115.657 74.0278 116.212 72.616C116.485 71.9183 116.893 71.2812 117.412 70.7411C117.932 70.2011 118.552 69.7686 119.239 69.4685M116.455 82.0335H126.36V84H116.455V82.0335Z" fill="white"/>
</g>
<defs>
<filter id="filter0_d_111_1572" x="0" y="0" width="152" height="152" filterUnits="userSpaceOnUse" color-interpolation-filters="sRGB">
<feFlood flood-opacity="0" result="BackgroundImageFix"/>
<feColorMatrix in="SourceAlpha" type="matrix" values="0 0 0 0 0 0 0 0 0 0 0 0 0 0 0 0 0 0 127 0" result="hardAlpha"/>
<feOffset/>
<feGaussianBlur stdDeviation="8"/>
<feComposite in2="hardAlpha" operator="out"/>
<feColorMatrix type="matrix" values="0 0 0 0 0 0 0 0 0 0 0 0 0 0 0 0 0 0 0.08 0"/>
<feBlend mode="normal" in2="BackgroundImageFix" result="effect1_dropShadow_111_1572"/>
<feBlend mode="normal" in="SourceGraphic" in2="effect1_dropShadow_111_1572" result="shape"/>
</filter>
<clipPath id="clip0_111_1572">
<rect width="103" height="15" fill="white" transform="translate(24 69)"/>
</clipPath>
</defs>
</svg>
