<svg width="152" height="152" viewBox="0 0 152 152" fill="none" xmlns="http://www.w3.org/2000/svg">
<g filter="url(#filter0_d_111_1613)">
<rect x="16" y="16" width="120" height="120" rx="16" fill="white"/>
</g>
<mask id="mask0_111_1613" style="mask-type:luminance" maskUnits="userSpaceOnUse" x="24" y="39" width="104" height="74">
<path d="M76 39H128V112.484H24V39H76Z" fill="#F01414"/>
</mask>
<g mask="url(#mask0_111_1613)">
<path fill-rule="evenodd" clip-rule="evenodd" d="M117.556 39H34.4441C33.0688 38.9959 31.7062 39.2642 30.4352 39.7896C29.1642 40.3149 28.0098 41.0868 27.0387 42.0608C26.0677 43.0348 25.2992 44.1915 24.7777 45.4641C24.2561 46.7367 23.9919 48.1 24.0002 49.4753V101.914C23.9919 103.294 24.2555 104.662 24.7759 105.94C25.2963 107.218 26.0633 108.381 27.0331 109.362C28.0029 110.344 29.1565 111.124 30.4281 111.66C31.6997 112.196 33.0643 112.476 34.4441 112.484H117.556C118.936 112.476 120.301 112.196 121.572 111.66C122.844 111.124 123.997 110.344 124.967 109.362C125.937 108.381 126.704 107.218 127.224 105.94C127.745 104.662 128.008 103.294 128 101.914V49.4753C128.008 48.1 127.744 46.7367 127.223 45.4641C126.701 44.1915 125.933 43.0348 124.962 42.0608C123.991 41.0868 122.836 40.3149 121.565 39.7896C120.294 39.2642 118.932 38.9959 117.556 39Z" fill="#F01414"/>
</g>
<path fill-rule="evenodd" clip-rule="evenodd" d="M120.41 101.914C120.41 103.576 119.187 104.925 117.556 104.925H34.4439C32.813 104.925 31.6212 103.576 31.6212 101.914V49.475C31.6212 47.7814 32.813 46.4641 34.4439 46.4641H117.556C119.187 46.4641 120.41 47.7814 120.41 49.475V101.914Z" fill="white"/>
<path fill-rule="evenodd" clip-rule="evenodd" d="M63.3921 76.5106C63.3921 66.8194 62.4198 59.2609 52.07 59.2609H49.7178V92.004H53.795C59.8481 92.004 63.3607 87.1113 63.3607 76.5106M55.7709 99.782H38.3016V51.7024H55.8022C68.1279 51.7024 74.9337 59.4804 74.9337 75.5383C74.9337 89.4322 70.3233 99.6879 55.8022 99.782M95.947 92.004H91.2739V79.6469H96.292C102.251 79.6469 103.694 83.1282 103.694 85.8254C103.694 92.004 97.7974 92.004 95.9784 92.004H95.947ZM91.3053 59.1354H94.912C100.056 59.1354 102.094 60.9231 102.094 64.9063C102.094 68.0739 99.836 70.7398 95.8529 70.7398H91.3053V59.1354ZM105.199 74.6288C107.598 73.8898 109.7 72.4064 111.2 70.3935C112.699 68.3805 113.52 65.9424 113.542 63.4322C113.542 62.4286 113.322 51.7024 99.9301 51.7024H79.9832V99.782H96.8252C101.279 99.782 115.204 99.782 115.204 86.2959C115.204 82.9087 113.824 76.542 105.168 74.6288H105.199Z" fill="#F01414"/>
<defs>
<filter id="filter0_d_111_1613" x="0" y="0" width="152" height="152" filterUnits="userSpaceOnUse" color-interpolation-filters="sRGB">
<feFlood flood-opacity="0" result="BackgroundImageFix"/>
<feColorMatrix in="SourceAlpha" type="matrix" values="0 0 0 0 0 0 0 0 0 0 0 0 0 0 0 0 0 0 127 0" result="hardAlpha"/>
<feOffset/>
<feGaussianBlur stdDeviation="8"/>
<feComposite in2="hardAlpha" operator="out"/>
<feColorMatrix type="matrix" values="0 0 0 0 0 0 0 0 0 0 0 0 0 0 0 0 0 0 0.08 0"/>
<feBlend mode="normal" in2="BackgroundImageFix" result="effect1_dropShadow_111_1613"/>
<feBlend mode="normal" in="SourceGraphic" in2="effect1_dropShadow_111_1613" result="shape"/>
</filter>
</defs>
</svg>
