<svg width="152" height="152" viewBox="0 0 152 152" fill="none" xmlns="http://www.w3.org/2000/svg">
<g filter="url(#filter0_d_111_1546)">
<rect x="16" y="16" width="120" height="120" rx="16" fill="#00217A"/>
</g>
<g clip-path="url(#clip0_111_1546)">
<mask id="mask0_111_1546" style="mask-type:luminance" maskUnits="userSpaceOnUse" x="22" y="66" width="107" height="20">
<path d="M129 66H22V86H129V66Z" fill="white"/>
</mask>
<g mask="url(#mask0_111_1546)">
<path d="M70.8179 75.7012V76.0156C70.8179 76.1454 70.7623 76.2009 70.6323 76.2009H63.5572C63.7427 77.4412 64.6344 78.3297 66.0083 78.3297C66.9099 78.3297 67.5631 78.0815 68.0354 77.5344L68.0359 77.5346C68.0793 77.4823 68.1437 77.4483 68.2164 77.4483C68.2645 77.4483 68.3096 77.4633 68.3473 77.4886L68.3506 77.4908L68.3531 77.4931L69.6693 78.4114L69.671 78.4125L69.6743 78.4149C69.7349 78.4579 69.7746 78.5287 69.7746 78.6087C69.7746 78.6575 69.76 78.703 69.7345 78.7407C69.7337 78.7421 69.7324 78.7433 69.7316 78.7447C69.7282 78.7489 69.7249 78.7534 69.7215 78.7574C68.8547 79.8176 67.6095 80.329 65.9895 80.329C63.297 80.329 61.2173 78.3668 61.2172 75.4974C61.2172 72.6277 63.3713 70.6655 66.0079 70.6655C69.054 70.6657 70.8179 72.9981 70.8179 75.7012ZM68.4409 74.3496C68.1069 73.3502 67.327 72.665 66.0083 72.665C64.95 72.665 64.0025 73.2946 63.6313 74.3496H68.4409Z" fill="white"/>
<path d="M128.966 75.7012V76.0156C128.966 76.1454 128.91 76.2009 128.78 76.2009H121.705C121.89 77.4412 122.782 78.3297 124.156 78.3297C125.058 78.3297 125.711 78.0815 126.183 77.5344L126.184 77.5346C126.227 77.4823 126.291 77.4483 126.364 77.4483C126.412 77.4483 126.458 77.4633 126.495 77.4886L126.498 77.4908L126.501 77.4931L127.817 78.4114L127.819 78.4125L127.822 78.4149L127.822 78.4153C127.883 78.4583 127.922 78.5287 127.922 78.6087C127.922 78.6575 127.908 78.703 127.882 78.7407C127.882 78.7421 127.88 78.7433 127.879 78.7447C127.876 78.7489 127.873 78.7534 127.869 78.7574C127.003 79.8176 125.757 80.329 124.138 80.329C121.445 80.329 119.365 78.3668 119.365 75.4974C119.365 72.6277 121.519 70.6655 124.156 70.6655C127.202 70.6657 128.966 72.9981 128.966 75.7012ZM126.589 74.3496C126.255 73.3502 125.475 72.665 124.156 72.665C123.098 72.665 122.151 73.2946 121.779 74.3496H126.589Z" fill="white"/>
<path d="M60.1983 78.0337C60.1651 78.0339 60.13 78.0357 60.08 78.052C59.4301 78.2929 59.0213 78.3297 58.446 78.3297C57.5176 78.3297 57.1646 77.8115 57.1646 76.8118V72.8503H59.9688C60.0712 72.8503 60.1543 72.7675 60.1543 72.6654V71.0357C60.1543 70.9336 60.0712 70.8507 59.9686 70.8507H57.1646V68.1847C57.1646 68.0825 57.0815 67.9998 56.9791 67.9998H55.1218C55.0193 67.9998 54.9363 68.0825 54.9363 68.1847V77.2193C54.9363 79.2742 56.2734 80.3292 58.0563 80.329C58.7619 80.329 59.653 80.2368 60.1915 80.033C60.3401 79.9775 60.3401 79.8849 60.3401 79.7183V78.1747C60.3401 78.0968 60.2767 78.0334 60.1983 78.0337Z" fill="white"/>
<path d="M81.2049 75.4974C81.2049 78.4778 79.4778 80.329 76.9704 80.329C75.9493 80.329 75.0954 80.033 74.2967 79.4035V83.6245C74.2967 83.754 74.2407 83.8094 74.1111 83.8094H72.2536C72.1241 83.8094 72.0685 83.7538 72.0685 83.6245V71.0359C72.0685 70.9061 72.1241 70.8507 72.2536 70.8507H74.1111C74.2411 70.8507 74.2967 70.9062 74.2967 71.0359V71.6099C75.0022 71.0359 75.8565 70.6655 76.9704 70.6655C79.4778 70.6657 81.2049 72.5167 81.2049 75.4974ZM78.8651 75.4974C78.8651 73.9053 77.9919 72.6649 76.5249 72.6649C75.0578 72.6649 74.1851 73.9051 74.1851 75.4974C74.1851 77.0892 75.0578 78.3297 76.5249 78.3297C77.9919 78.3297 78.8651 77.0894 78.8651 75.4974Z" fill="white"/>
<path d="M114.571 70.6655C113.383 70.6655 112.528 71.073 111.767 71.7022V71.0359C111.767 70.9061 111.711 70.8507 111.581 70.8507H109.724C109.595 70.8507 109.539 70.9062 109.539 71.0359V79.959C109.539 80.0885 109.595 80.1439 109.724 80.1439H111.581C111.712 80.1439 111.767 80.0883 111.767 79.959V75.7566C111.767 73.5536 112.826 72.6649 113.995 72.6649C115.017 72.6649 115.592 73.2017 115.593 74.5902V79.959C115.593 80.0885 115.648 80.1439 115.778 80.1439H117.635C117.765 80.1439 117.821 80.0883 117.821 79.959V73.7941C117.821 71.8689 116.595 70.6655 114.571 70.6655Z" fill="white"/>
<path d="M107.898 75.4974C107.898 78.3112 105.763 80.329 102.922 80.329C100.08 80.329 97.9449 78.3114 97.9449 75.4974C97.9449 72.6833 100.08 70.6655 102.922 70.6655C105.763 70.6655 107.898 72.6833 107.898 75.4974ZM105.521 75.4974C105.521 73.7941 104.463 72.6649 102.922 72.6649C101.38 72.6649 100.322 73.7941 100.322 75.4974C100.322 77.2003 101.38 78.3297 102.922 78.3297C104.463 78.3297 105.521 77.2004 105.521 75.4974Z" fill="white"/>
<path d="M47.0526 79.6788C47.7916 80.1504 49.3057 80.6196 51.1845 80.1041C52.5237 79.7041 53.5663 78.7674 53.5362 77.3492C53.5362 75.6061 52.1919 74.9213 50.1822 74.6167C48.302 74.3315 47.96 73.9481 47.9549 73.488C47.9488 72.9405 48.4056 72.6794 49.0121 72.5984C49.9412 72.4741 50.7719 72.8842 51.3146 73.6002C51.4123 73.7292 51.5366 73.771 51.6705 73.6935C51.6705 73.6935 53.0342 72.9159 53.1512 72.8483C53.2682 72.7805 53.3121 72.6219 53.2385 72.513C52.7806 71.8745 52.1856 71.3565 51.4305 71.0642C50.6755 70.772 50.0855 70.6588 49.3398 70.6658C47.6098 70.6658 45.7264 71.4996 45.7264 73.5434C45.7418 74.943 46.7039 75.8512 48.9553 76.2135C50.7039 76.4894 51.3048 76.8512 51.3079 77.3668C51.3125 78.0952 50.4771 78.3646 49.4075 78.305C48.56 78.2578 48.0212 77.836 47.5694 77.1941C47.4986 77.0883 47.3353 77.0582 47.2253 77.1209L45.6864 77.9993L45.6902 78.0004C45.5726 78.0659 45.5101 78.2405 45.5958 78.3472C46.1172 78.9957 46.2842 79.1883 47.0526 79.6788Z" fill="white"/>
<path d="M96.9113 78.0337C96.8778 78.0339 96.8427 78.0357 96.793 78.052C96.1431 78.2929 95.7343 78.3297 95.1587 78.3297C94.2304 78.3297 93.8772 77.8115 93.8772 76.8118V72.8503H96.6818C96.7842 72.8503 96.867 72.7675 96.867 72.6654V71.0357C96.867 70.9336 96.7842 70.8507 96.6814 70.8507H93.8772V68.1847C93.8772 68.0825 93.7941 67.9998 93.6917 67.9998H91.8346C91.7318 67.9998 91.649 68.0825 91.649 68.1847V77.2193C91.649 79.2742 92.9861 80.3292 94.7688 80.329C95.4747 80.329 96.3658 80.2368 96.9042 80.033C97.053 79.9775 97.053 79.8849 97.053 79.7183V78.1747C97.053 78.0968 96.9894 78.0334 96.9113 78.0337Z" fill="white"/>
<path d="M83.7653 79.6788C84.5042 80.1504 86.0181 80.6196 87.8973 80.1041C89.2365 79.7041 90.2789 78.7674 90.2488 77.3492C90.2488 75.6061 88.9046 74.9213 86.8946 74.6167C85.0146 74.3315 84.6727 73.9481 84.6677 73.488C84.6614 72.9405 85.1182 72.6794 85.7247 72.5984C86.6538 72.4741 87.4844 72.8842 88.0273 73.6002C88.1251 73.7292 88.2492 73.771 88.383 73.6935C88.383 73.6935 89.7468 72.9159 89.8638 72.8483C89.9809 72.7805 90.0248 72.6219 89.9512 72.513C89.4931 71.8745 88.8983 71.3565 88.1431 71.0642C87.3878 70.772 86.798 70.6588 86.0524 70.6658C84.3224 70.6658 82.4391 71.4996 82.4391 73.5434C82.4545 74.943 83.4167 75.8512 85.6679 76.2135C87.4166 76.4894 88.0173 76.8512 88.0206 77.3668C88.0252 78.0952 87.1897 78.3646 86.1201 78.305C85.2725 78.2578 84.7337 77.836 84.2819 77.1941C84.2112 77.0883 84.0478 77.0582 83.9379 77.1209L82.3989 77.9993L82.4027 78.0004C82.2852 78.0659 82.223 78.2405 82.3086 78.3472C82.8298 78.9957 82.9966 79.1883 83.7653 79.6788Z" fill="white"/>
<path d="M31.2811 72.1957C30.8708 70.195 33.1566 69.1719 35.936 69.3239C38.6727 69.4734 41.5795 70.6814 41.7348 71.9925C41.8784 73.2045 38.9836 73.9038 36.4746 73.9038C34.0733 73.9038 31.574 73.6242 31.2811 72.1957Z" fill="white"/>
<path d="M30.3841 69.4758C30.5421 67.9773 27.8685 67.7108 26.0413 68.2692C24.2141 68.8276 22.8285 70.0724 24.0833 70.6624C24.7867 70.9932 26.1684 71.1758 27.7862 70.9118C29.404 70.6478 30.2953 70.3173 30.3841 69.4758Z" fill="white"/>
<path d="M36.4046 78.2335C36.0951 75.668 33.2407 74.8707 30.136 75.2549C27.0312 75.639 23.6763 77.2052 22.3654 79.3664C20.599 82.2787 24.3358 83.8775 28.4007 83.8072C32.4657 83.737 36.8588 81.9977 36.4046 78.2335Z" fill="white"/>
</g>
</g>
<defs>
<filter id="filter0_d_111_1546" x="0" y="0" width="152" height="152" filterUnits="userSpaceOnUse" color-interpolation-filters="sRGB">
<feFlood flood-opacity="0" result="BackgroundImageFix"/>
<feColorMatrix in="SourceAlpha" type="matrix" values="0 0 0 0 0 0 0 0 0 0 0 0 0 0 0 0 0 0 127 0" result="hardAlpha"/>
<feOffset/>
<feGaussianBlur stdDeviation="8"/>
<feComposite in2="hardAlpha" operator="out"/>
<feColorMatrix type="matrix" values="0 0 0 0 0 0 0 0 0 0 0 0 0 0 0 0 0 0 0.08 0"/>
<feBlend mode="normal" in2="BackgroundImageFix" result="effect1_dropShadow_111_1546"/>
<feBlend mode="normal" in="SourceGraphic" in2="effect1_dropShadow_111_1546" result="shape"/>
</filter>
<clipPath id="clip0_111_1546">
<rect width="107" height="20" fill="white" transform="translate(22 66)"/>
</clipPath>
</defs>
</svg>
