<svg width="152" height="152" viewBox="0 0 152 152" fill="none" xmlns="http://www.w3.org/2000/svg">
<g filter="url(#filter0_d_111_1586)">
<rect x="16" y="16" width="120" height="120" rx="16" fill="#063773"/>
</g>
<g clip-path="url(#clip0_111_1586)">
<path d="M28.6216 79.8863H28.6167C26.8619 79.8863 25.0436 79.8459 23.8494 79.3396C23.2295 79.0796 22.8001 78.73 22.497 78.2415C22.1629 77.7037 22 77.0044 22 76.1122C22 75.4307 22.0994 74.6329 22.2892 73.7318C22.3348 73.5252 23.3703 68.7289 23.4379 68.4737C23.7141 67.4741 24.0579 66.6489 24.4962 65.9585C25.2514 64.7707 26.26 64.0037 27.6669 63.5467C28.8383 63.1704 30.3308 63 32.4977 63H32.5157C33.6554 63 34.5915 63.0807 35.3785 63.2422C36.3056 63.4352 37.0159 63.7533 37.486 64.1789C37.8388 64.5018 38.0652 64.8918 38.1598 65.3441C38.2095 65.5726 38.2322 65.8285 38.2322 66.1015C38.2322 66.7378 38.1011 67.4063 37.9968 67.9393C37.983 68.0201 37.9651 68.0919 37.9513 68.1678L37.9465 68.1904H33.7493L33.7541 68.1589C33.7541 68.1589 33.7679 68.0337 33.7721 67.9749C33.7721 67.9701 33.79 67.8045 33.79 67.5623C33.79 67.199 33.6181 66.9171 33.2702 66.6975C32.9941 66.5408 32.6372 66.4867 32.2975 66.4464C31.9358 66.4012 31.5285 66.3971 31.144 66.3971C30.4385 66.3971 29.9049 66.4512 29.4658 66.5723C29.1179 66.6667 28.8238 66.8056 28.5795 66.9889C28.2315 67.2489 27.9596 67.6253 27.7518 68.1364C27.5571 68.6112 27.417 69.1812 27.263 69.8845L26.6976 72.5742C26.5119 73.439 26.3808 74.0938 26.3808 74.6589C26.3808 74.986 26.4263 75.2419 26.5209 75.4704C26.67 75.8337 26.9869 76.1156 27.4163 76.2682C27.8277 76.416 28.3523 76.4831 29.1124 76.4831C29.6191 76.4831 30.0354 76.4742 30.415 76.429C31.0708 76.3531 31.5409 76.1553 31.8937 75.8146C32.2782 75.4472 32.5357 74.8998 32.7076 74.0979L32.7663 73.8242H36.9179V73.8509C36.9179 73.8824 36.6825 74.9627 36.5603 75.3972C36.434 75.8502 36.298 76.2313 36.1399 76.572C35.7374 77.4416 35.1762 78.1142 34.3713 78.6835C33.5933 79.2213 32.7656 79.5531 31.766 79.7283C30.9065 79.8761 30.025 79.8897 29.0475 79.8897C29.051 79.8911 28.6713 79.8863 28.6216 79.8863Z" fill="white"/>
<path d="M75.1293 79.8863C73.3696 79.8863 71.552 79.8459 70.3578 79.3396C69.7378 79.0796 69.3085 78.73 69.0054 78.2415C68.6706 77.7037 68.5077 77.0044 68.5077 76.1122C68.5077 75.4307 68.6071 74.6329 68.7969 73.7318C68.8425 73.5259 69.878 68.7289 69.9456 68.4737C70.2169 67.4741 70.5655 66.6489 71.0039 65.9585C71.7591 64.7707 72.7677 64.0037 74.1745 63.5467C75.3467 63.1704 76.8392 63 79.0054 63H79.0234C80.1631 63 81.0992 63.0807 81.8861 63.2422C82.8132 63.4352 83.5236 63.7533 83.9937 64.1789C84.3465 64.5018 84.5729 64.8918 84.6674 65.3441C84.7172 65.5726 84.7399 65.8285 84.7399 66.1015C84.7399 66.7378 84.6088 67.4063 84.5045 67.9441C84.4907 68.0201 84.4728 68.0967 84.459 68.1726L84.4541 68.1952H80.257L80.2618 68.1637C80.2618 68.1637 80.2756 68.0385 80.2798 67.9797C80.2798 67.9749 80.2977 67.8093 80.2977 67.5671C80.2977 67.2038 80.1258 66.9219 79.7779 66.7023C79.5018 66.5456 79.1449 66.4915 78.8052 66.4512C78.4435 66.406 78.0362 66.4019 77.6517 66.4019C76.9462 66.4019 76.4126 66.4559 75.9735 66.5771C75.6256 66.6715 75.3357 66.8104 75.0872 66.9937C74.7392 67.2537 74.4672 67.6301 74.2595 68.1412C74.0648 68.616 73.9247 69.1859 73.7707 69.8893L73.1964 72.5701C73.0107 73.4349 72.8795 74.0897 72.8795 74.6548C72.8795 74.9819 72.9251 75.2378 73.0196 75.4663C73.1687 75.8296 73.4856 76.1115 73.915 76.2641C74.3264 76.4119 74.8511 76.4789 75.6111 76.4789C76.1178 76.4789 76.5341 76.4701 76.9137 76.4249C77.5696 76.3489 78.0397 76.1512 78.3924 75.8105C78.7769 75.4431 79.0344 74.8957 79.2063 74.0938L79.265 73.8201H83.4166V73.8468C83.4166 73.8783 83.1812 74.9586 83.059 75.3931C82.9327 75.8461 82.7967 76.2272 82.6386 76.5679C82.2361 77.4423 81.6749 78.1101 80.87 78.6794C80.092 79.2172 79.2643 79.549 78.2647 79.7242C77.4087 79.8733 75.179 79.8863 75.1293 79.8863Z" fill="white"/>
<path d="M66.1199 79.7522H54.0441L54.053 79.7208L57.4315 63.9682C57.4902 63.6767 57.5985 63.4797 57.7753 63.3449C57.9561 63.206 58.2046 63.1389 58.5353 63.1389H68.7252C68.9785 63.1389 69.1594 63.1971 69.2678 63.3045C69.3492 63.3893 69.3941 63.5104 69.3941 63.6589V63.6726C69.3941 63.7355 69.3851 63.7937 69.3713 63.8567L68.8467 66.313H60.9597L60.277 69.5719H67.6807L67.0069 72.6426H59.6025L58.761 76.5741H66.8116L66.1199 79.7522Z" fill="white"/>
<path d="M87.7753 79.7523H83.75L83.759 79.7209L87.1236 64.0264C87.2051 63.6857 87.3314 63.4524 87.5219 63.3094C87.671 63.1972 87.8609 63.1438 88.1052 63.1438H90.4889C90.7464 63.1438 90.937 63.202 91.0591 63.319C91.1544 63.4086 91.2041 63.5434 91.2041 63.7001C91.2041 63.7493 91.1993 63.7986 91.1903 63.8479L87.7753 79.7523Z" fill="white"/>
<path d="M98.8604 79.7522H93.7859L93.7769 79.7344L90.0188 71.1189L90.0326 71.1052L96.532 64.1119C96.9345 63.6767 97.1699 63.4571 97.3825 63.3271C97.6089 63.1882 97.8077 63.1389 98.1335 63.1389H101.408C101.562 63.1389 101.656 63.1882 101.711 63.2333C101.743 63.26 101.765 63.2874 101.778 63.3141C101.787 63.3319 101.796 63.3544 101.796 63.3811H101.801L101.796 63.4352C101.792 63.5022 101.756 63.6144 101.62 63.7622L94.6046 71.2352L98.8604 79.7522Z" fill="white"/>
<path d="M47.952 79.7522H47.9202L47.9292 79.7208L49.3582 73.01H42.7235L41.2759 79.7522H37.2506L37.2596 79.7208C37.3956 79.0844 40.5932 64.1208 40.6152 64.0359C40.7326 63.5426 40.9321 63.3722 41.0902 63.2826C41.2621 63.1841 41.5016 63.1389 41.8413 63.1389H44.0165C44.1297 63.1389 44.3147 63.1882 44.4555 63.2867C44.5321 63.3408 44.5915 63.403 44.6274 63.4708C44.673 63.5515 44.695 63.6411 44.695 63.7444C44.695 63.7896 44.6902 63.8389 44.6812 63.8881C44.6633 63.9825 43.5595 69.097 43.4511 69.6033H50.0906C50.6291 67.0793 51.2759 64.0715 51.2849 64.0359C51.4022 63.5426 51.6017 63.3722 51.7598 63.2826C51.9317 63.1841 52.1712 63.1389 52.5109 63.1389H54.6861C54.7993 63.1389 54.9843 63.1882 55.1251 63.2867C55.2018 63.3408 55.2611 63.403 55.297 63.4708C55.3426 63.5515 55.3647 63.6411 55.3647 63.7444C55.3647 63.7896 55.3598 63.8389 55.3509 63.8881C55.3329 63.9867 52.0898 79.0844 51.9496 79.7303L51.9448 79.7529L47.952 79.7522Z" fill="white"/>
<path d="M110.733 66.3849C111.045 66.4656 111.289 66.6182 111.42 66.8734C111.506 67.0438 111.547 67.2408 111.547 67.4782C111.547 67.7204 111.506 68.003 111.438 68.3342C111.343 68.7693 111.253 69.1279 111.112 69.4371C110.972 69.7464 110.782 70.0023 110.506 70.2171C109.955 70.6475 109.095 70.9075 107.571 71.2482C105.554 71.6923 104.166 72.0597 103.184 72.5434C102.202 73.0279 101.633 73.606 101.203 74.5201C100.918 75.1298 100.701 75.892 100.492 76.8553L99.9222 79.7242H112.98L113.59 76.8191H104.504C104.504 76.8191 104.644 76.1198 104.761 75.8639C104.911 75.5321 105.105 75.2858 105.359 75.1017C105.612 74.9177 105.919 74.7965 106.29 74.6939C107.037 74.488 108.068 74.3491 109.583 73.968C111.451 73.4883 112.713 72.9635 113.604 72.1165C114.495 71.2694 115.038 70.0769 115.435 68.2076C115.584 67.5172 115.666 66.8358 115.666 66.3205C115.666 65.5809 115.521 65.0117 115.263 64.5765C115.006 64.1413 114.634 63.828 114.146 63.5947C113.179 63.1328 111.754 63.0254 110.067 63.0254C107.918 63.0254 106.227 63.245 104.969 64.0113C103.712 64.7735 102.839 66.1632 102.351 68.4265L102.215 69.0677H106.186L106.339 68.3595C106.493 67.6828 106.638 67.221 106.896 66.8939C107.153 66.5621 107.529 66.4054 108.036 66.3424C108.379 66.2973 108.791 66.2884 109.302 66.2884C109.383 66.2884 109.46 66.2884 109.537 66.2884C110.032 66.2815 110.421 66.3041 110.733 66.3849Z" fill="white"/>
<path d="M121.687 64.7843C121.226 65.2591 117.35 69.2761 115.762 70.9258C115.446 71.2617 115.107 71.6339 114.957 71.9432C114.835 72.1676 114.677 72.7903 114.596 73.2343C114.429 74.1621 114.302 75.0091 114.225 75.3547C114.207 75.4443 114.198 75.525 114.198 75.601C114.198 75.8877 114.32 76.0758 114.483 76.2154C114.641 76.3502 114.859 76.4125 115.071 76.4125C115.266 76.4125 122.764 76.4125 122.764 76.4125L122.054 79.7254L126.102 79.3443L126.731 76.4084H128.179L128.807 73.4724H127.36C127.36 73.4724 128.807 66.7754 128.852 66.5243C129.35 63.812 128.214 63.019 125.655 63.019C125.002 63.0314 123.524 62.8966 121.687 64.7843ZM123.388 73.4806H117.576L124.492 66.3799H124.912L123.388 73.4806Z" fill="white"/>
<path d="M112.623 89.0001C110.009 89.0001 107.499 88.3097 105.364 87.0008C103.265 85.7186 102.044 84.2037 101.465 83.3471L100.701 85.2971C100.633 85.4764 100.443 85.5886 100.24 85.5571C100.041 85.5215 99.8918 85.3512 99.8918 85.1534L99.8511 81.3294V81.3246C99.8511 81.2172 99.8966 81.1138 99.9733 81.042C100.055 80.9661 100.159 80.9209 100.271 80.9209H104.197H104.202C104.397 80.9257 104.564 81.0687 104.6 81.2568C104.605 81.2835 104.609 81.3061 104.609 81.3328C104.609 81.5032 104.501 81.6557 104.342 81.718L102.429 82.4528C104.108 83.9369 107.567 86.3214 112.425 86.3214C112.841 86.3214 113.261 86.3036 113.678 86.2673C115.726 86.097 117.793 85.5947 119.656 84.8236C121.289 84.147 122.728 83.2862 123.827 82.327L121.85 81.7488C121.674 81.6995 121.547 81.5381 121.547 81.354C121.547 81.3403 121.547 81.3273 121.547 81.3136C121.565 81.1166 121.728 80.9592 121.927 80.9414L125.757 80.5966C125.775 80.5966 125.789 80.5918 125.798 80.5918C125.898 80.5918 125.993 80.6274 126.065 80.6862C126.151 80.7581 126.206 80.8614 126.214 80.9688C126.531 84.7032 126.531 84.7032 126.531 84.7162C126.531 84.9003 126.405 85.0658 126.223 85.1151C126.188 85.124 126.151 85.1288 126.115 85.1288C125.952 85.1288 125.807 85.0392 125.735 84.9003L124.808 83.1432C124.067 84.1381 122.773 85.5414 120.747 86.7606C118.694 87.9977 116.401 88.7332 113.932 88.9392L113.683 88.9617C113.334 88.9864 112.976 89.0001 112.623 89.0001Z" fill="white"/>
</g>
<defs>
<filter id="filter0_d_111_1586" x="0" y="0" width="152" height="152" filterUnits="userSpaceOnUse" color-interpolation-filters="sRGB">
<feFlood flood-opacity="0" result="BackgroundImageFix"/>
<feColorMatrix in="SourceAlpha" type="matrix" values="0 0 0 0 0 0 0 0 0 0 0 0 0 0 0 0 0 0 127 0" result="hardAlpha"/>
<feOffset/>
<feGaussianBlur stdDeviation="8"/>
<feComposite in2="hardAlpha" operator="out"/>
<feColorMatrix type="matrix" values="0 0 0 0 0 0 0 0 0 0 0 0 0 0 0 0 0 0 0.08 0"/>
<feBlend mode="normal" in2="BackgroundImageFix" result="effect1_dropShadow_111_1586"/>
<feBlend mode="normal" in="SourceGraphic" in2="effect1_dropShadow_111_1586" result="shape"/>
</filter>
<clipPath id="clip0_111_1586">
<rect width="107" height="26" fill="white" transform="translate(22 63)"/>
</clipPath>
</defs>
</svg>
