<svg width="152" height="152" viewBox="0 0 152 152" fill="none" xmlns="http://www.w3.org/2000/svg">
<g filter="url(#filter0_d_111_1565)">
<rect x="16" y="16" width="120" height="120" rx="16" fill="#F45334"/>
</g>
<g clip-path="url(#clip0_111_1565)">
<path d="M128.477 78.7949C128.477 87.8593 121.104 95.1628 112.018 95.1628C102.932 95.1628 95.5588 87.8304 95.5588 78.7949C95.5588 69.7593 102.932 62.427 112.018 62.427C121.104 62.427 128.477 69.7305 128.477 78.7949Z" fill="#F45334"/>
<path d="M113.847 85.7809C113.353 85.5788 112.773 85.4633 112.25 85.4345C111.38 85.4056 110.596 85.4922 109.754 85.6654C108.912 85.8386 108.07 86.0118 107.228 86.1562C106.416 86.3005 105.603 86.5603 104.79 86.618C103.368 86.7335 103.716 86.5892 104.529 85.0592C105.342 83.5581 106.416 81.6528 107.403 79.8053C108.709 77.3804 109.609 74.7824 108.302 72.0688C106.532 68.316 101.249 71.0296 99.4487 73.3101C98.752 74.1761 101.394 74.4937 102.003 73.9163C103.31 72.1843 105.574 71.0007 105.864 73.6854C105.98 74.7824 105.632 75.9659 105.196 76.9763C104.093 79.5166 102.584 81.7106 101.19 84.02C100.262 85.5211 99.71 87.282 101.655 87.9171C102.265 88.1191 102.903 88.2346 103.542 88.2057C104.297 88.1769 105.022 88.0037 105.748 87.8593C106.851 87.6284 107.954 87.4263 109.057 87.2242C109.638 87.1376 110.189 87.0222 110.77 86.9644C111.496 86.9067 112.25 86.9067 112.976 86.9933C113.266 87.0222 113.557 87.1088 113.847 87.1376C114.108 87.1665 114.718 86.7335 114.747 86.4448C114.776 86.1273 114.108 85.8675 113.847 85.7809Z" fill="white"/>
<path d="M125.43 77.4094C124.878 77.3517 124.297 77.4094 123.775 77.496C123.601 77.5249 123.397 77.5538 123.223 77.5826C122.875 77.6404 122.527 77.727 122.149 77.8136C122.44 76.2547 122.817 74.5515 123.136 73.1659C123.368 72.0978 123.252 70.7122 122.846 70.0193C122.73 69.8173 122.091 69.6441 121.743 69.7595C121.482 69.8461 121.075 70.2503 120.872 70.5967C120.611 71.0297 120.291 71.7514 120.175 72.0401C119.479 74.1763 119.13 76.1104 118.666 78.3332C118.637 78.4198 118.637 78.5353 118.608 78.6219C118.405 78.6796 118.172 78.7085 117.969 78.7662C117.243 78.9105 116.518 79.1703 115.763 79.2569C115.444 79.2858 115.037 79.4302 114.863 79.1126C114.747 78.8817 114.892 78.4198 114.95 78.1889C115.124 77.496 115.327 76.8032 115.589 76.1104C116.721 73.137 117.069 72.6174 117.36 70.7988C117.418 70.3946 117.418 69.9616 117.243 69.5575C117.098 69.2111 116.866 69.1533 116.576 69.1533C116.256 69.1533 115.821 69.1822 115.531 69.3265C115.444 69.3843 115.327 69.442 115.24 69.4997C115.037 69.6729 114.863 69.875 114.689 70.0771C114.631 70.1348 114.573 70.2214 114.544 70.308C114.195 70.8854 113.818 71.4339 113.557 72.0401C113.295 72.6752 113.034 73.2814 112.773 73.9453C112.309 75.1866 111.902 76.4857 111.583 77.7847C111.525 77.9868 111.496 78.1888 111.438 78.4198C111.089 79.892 111.06 81.2777 113.441 81.0756C115.095 80.9313 116.721 80.4983 118.317 80.0364L118.143 81.1622C118.085 81.6529 117.766 83.9623 117.737 84.4531C117.679 85.0593 117.621 85.7233 117.65 86.3584C117.65 86.5893 117.65 86.7914 117.679 87.0223C117.708 87.1666 117.737 87.3976 117.853 87.5419C118.027 87.744 118.405 87.8017 118.753 87.744C119.159 87.6574 119.392 87.6285 119.711 87.3398C119.972 87.1089 120.146 86.7048 120.32 86.3584C120.553 85.8387 120.727 85.3191 120.872 84.5974C121.104 83.5005 121.569 80.6426 121.743 79.5456C121.772 79.4302 121.801 79.2858 121.801 79.1415C122.091 79.0837 122.381 78.9971 122.672 78.9394C123.31 78.7951 123.949 78.7085 124.588 78.6796C124.965 78.6507 125.371 78.6507 125.749 78.6507C125.952 78.6507 126.852 78.8239 126.823 78.3621C126.852 77.6404 125.952 77.4672 125.43 77.4094Z" fill="white"/>
<path d="M92.7431 84.1932C92.7141 84.2221 92.685 84.2221 92.685 84.251C91.5529 85.2613 88.0114 87.7151 86.8793 85.3191C86.4148 84.3376 86.4729 83.0385 86.4729 81.9704C86.4729 81.0756 86.56 80.1229 86.618 79.1703C88.2436 79.1414 90.5659 77.6692 90.595 74.0608C90.595 71.7802 88.3888 71.6359 87.8082 71.6359C83.1346 71.607 82.1476 78.593 82.1186 81.7684V82.0859C80.9284 84.251 79.6221 86.1851 78.4029 86.214C77.7933 86.2428 77.532 85.2613 77.532 84.0778C77.532 81.9993 78.2287 79.6899 78.548 77.496C78.8673 75.3021 78.548 73.8298 76.8353 73.7432C72.7713 73.5411 70.478 79.0837 70.2748 79.4012C70.3619 76.4856 69.4911 74.7536 66.7914 74.6958C64.9045 74.6381 62.9886 77.5537 62.9886 77.5537V76.9475C63.0176 75.7062 62.8725 72.8772 60.5502 72.8772H60.5212C59.9116 72.8772 58.8375 73.4545 57.8505 74.003C56.3991 74.8113 53.322 75.6773 53.1479 75.4175C51.8706 73.5411 50.1289 73.1081 48.9677 72.9638C46.5003 72.6751 44.5263 73.6566 44.3812 74.9845C44.3521 75.4175 44.5263 75.7928 44.7005 76.0237C44.1199 76.399 43.6264 77.0341 43.162 77.8424C42.6395 78.6796 42.175 80.2673 41.9137 81.0756C41.6234 81.9416 41.3041 82.6344 40.8106 83.5004C40.172 84.684 39.0979 86.4738 38.111 86.9645C37.7917 87.1089 37.2401 87.3109 36.9788 86.9068C36.6886 86.4449 36.8918 85.0881 37.0659 84.3953C37.2982 83.4716 37.6465 81.9127 37.8787 80.989C38.169 79.8343 38.4013 78.4197 38.5754 77.3805C38.7786 75.9083 38.6625 74.2917 37.2982 73.5123C35.4403 72.4442 33.1471 72.9349 31.5505 74.2628C30.5345 75.1 29.8958 76.1392 29.1411 77.4671C28.9089 77.8713 28.4444 78.8528 28.4444 78.8528C28.4444 78.8528 28.8218 76.1681 28.9089 75.4464C29.5185 70.8853 30.07 66.4397 31.028 61.9364C31.2312 60.926 31.5795 60.0889 31.5505 59.0208C31.5214 58.4434 31.4053 58.0682 31.1731 57.8949C30.3893 57.2021 28.5605 58.8764 28.009 59.7713C26.7898 61.7921 26.2092 64.1881 25.6867 66.4686C24.1772 73.2813 22.8418 87.4264 22.8128 87.7151C22.7838 88.4079 22.8709 89.6492 24.003 89.7358C24.6126 89.7647 24.9609 89.7647 25.8899 89.3894C26.8188 89.0141 27.3413 88.2058 27.7767 87.1377C28.2702 85.983 28.8798 84.3953 29.3733 83.0963C29.8668 81.7972 30.1571 80.8735 30.7377 79.8054C31.2021 78.9394 31.9859 77.9001 33.0019 77.5826C33.3793 77.4671 34.1631 77.3228 34.0179 77.9579C33.9599 78.2177 33.089 81.3354 32.8858 82.2303C32.7406 82.8365 32.5955 83.5582 32.4794 84.1644C31.8988 87.3975 34.0469 90.6018 37.6755 89.5049C39.3882 88.9853 40.6945 87.8306 41.6815 86.4449C41.8266 86.2428 41.9718 86.0119 42.1169 85.781C43.0168 88.6966 45.6584 89.6492 46.9647 89.7069C49.229 89.8224 54.0478 88.2636 54.0768 79.7188C54.0768 79.1126 53.9897 78.1599 53.9316 77.6692C53.9316 77.7269 55.8185 77.4382 57.2119 76.9764C57.5893 76.8609 57.9086 76.7166 58.1989 76.5722C57.4731 79.9209 57.328 84.7995 57.2699 86.5893C57.2119 89.2739 57.7925 89.7069 58.7214 89.7358C59.1568 89.7358 59.7374 89.6492 59.7374 89.6492C61.8855 89.043 61.8855 87.513 61.8855 87.513C62.0307 80.3539 65.8044 76.7166 66.6462 76.7454C66.9075 76.7454 66.9656 77.063 66.9946 77.5249C67.0236 79.1126 66.7043 80.7003 65.9495 83.5004C65.5431 84.9727 65.2819 86.1274 65.2819 86.8491C65.2238 89.2162 66.6462 89.3894 66.9075 89.4183H66.9365C68.3299 89.4471 68.5912 88.177 68.5912 88.177C71.5811 78.8239 74.2227 77.5826 74.2227 77.5826C73.7002 79.9786 73.1196 82.4901 73.0616 84.5974C73.0035 87.3687 74.0486 89.8224 77.2417 89.6781C79.1286 89.5915 80.9574 87.513 82.3798 85.3191C83.3378 89.3894 86.0084 89.7647 87.1115 89.7647C89.0274 89.7647 90.8852 88.8987 92.1625 87.513C92.5399 87.1089 92.9173 86.6759 93.2366 86.2428C93.4978 85.8964 94.1365 85.1459 94.1655 84.7129C94.2526 83.7314 93.2366 83.818 92.7431 84.1932ZM87.2276 74.0896C87.4018 73.7721 87.8372 73.4257 88.1565 73.4257C88.4178 73.4257 88.621 73.6277 88.621 74.1762C88.592 76.8032 87.0825 77.0918 86.8212 77.1496C86.9664 76.0237 86.8503 74.8979 87.2276 74.0896ZM50.1289 81.191C49.9547 84.3087 49.258 87.4553 47.8646 87.3975C46.6744 87.3687 46.0939 85.1459 46.0939 82.9519C46.0939 80.3539 47.197 77.1784 47.197 77.1784C47.197 77.1784 48.0678 77.3805 48.5033 77.4383C48.9097 77.496 49.8386 77.5537 49.8386 77.5537C50.0708 78.4486 50.216 79.6322 50.1289 81.191Z" fill="#354044"/>
</g>
<defs>
<filter id="filter0_d_111_1565" x="0" y="0" width="152" height="152" filterUnits="userSpaceOnUse" color-interpolation-filters="sRGB">
<feFlood flood-opacity="0" result="BackgroundImageFix"/>
<feColorMatrix in="SourceAlpha" type="matrix" values="0 0 0 0 0 0 0 0 0 0 0 0 0 0 0 0 0 0 127 0" result="hardAlpha"/>
<feOffset/>
<feGaussianBlur stdDeviation="8"/>
<feComposite in2="hardAlpha" operator="out"/>
<feColorMatrix type="matrix" values="0 0 0 0 0 0 0 0 0 0 0 0 0 0 0 0 0 0 0.08 0"/>
<feBlend mode="normal" in2="BackgroundImageFix" result="effect1_dropShadow_111_1565"/>
<feBlend mode="normal" in="SourceGraphic" in2="effect1_dropShadow_111_1565" result="shape"/>
</filter>
<clipPath id="clip0_111_1565">
<rect width="107" height="39" fill="white" transform="translate(22 57)"/>
</clipPath>
</defs>
</svg>
